<?xml version="1.0"?>
<svg xmlns="http://www.w3.org/2000/svg" height="512px" viewBox="0 -12 480.00619 480" width="512px"><path d="m438.625 376.007812h-88c.910156-2.570312 1.375-5.277343 1.375-8v-16c-.027344-22.082031-17.917969-39.976562-40-40h-140.6875l-40.96875-40.96875c-4.492188-4.519531-10.605469-7.050781-16.976562-7.03125h-17.367188c0-8.835937-7.164062-16-16-16h-64c-8.835938 0-16 7.164063-16 16v176c0 8.835938 7.164062 16 16 16h64c8.835938 0 16-7.164062 16-16v-20.265624l30.222656 31.144531c.398438.40625.839844.773437 1.3125 1.089843 3.941406 2.617188 8.570313 4.011719 13.304688 4h299.160156c11.289062 0 22.050781-4.765624 29.632812-13.128906 7.585938-8.359375 11.28125-19.535156 10.183594-30.769531-2.542968-20.757813-20.277344-36.292969-41.191406-36.070313zm-422.625 64v-176h64v176zm441.769531-7.855468c-4.558593 4.996094-11.007812 7.847656-17.769531 7.855468h-299.160156c-1.339844 0-2.65625-.335937-3.832032-.976562l-41.007812-42.222656v-116.800782h17.367188c2.125-.003906 4.164062.839844 5.664062 2.34375l43.3125 43.3125c1.5 1.5 3.535156 2.34375 5.65625 2.34375h144c13.253906 0 24 10.742188 24 24v16c0 4.417969-3.582031 8-8 8h-112v16h222.625c12.6875-.269531 23.558594 9.023438 25.261719 21.597657.699219 6.773437-1.527344 13.519531-6.117188 18.546875zm0 0" fill="#000000"/><path d="m288 112.007812v9.472657c-9.554688 3.375-15.957031 12.390625-16 22.527343 0 12.941407 11.808594 18.839844 20.425781 23.160157 6.773438 3.382812 11.574219 6.007812 11.574219 8.839843 0 4.417969-3.582031 8-8 8s-8-3.582031-8-8h-16c.042969 10.132813 6.445312 19.148438 16 22.527344v9.472656h16v-9.472656c9.554688-3.378906 15.957031-12.394531 16-22.527344 0-12.945312-11.808594-18.839843-20.425781-23.160156-6.773438-3.386718-11.574219-6.007812-11.574219-8.839844 0-4.417968 3.582031-8 8-8s8 3.582032 8 8h16c-.042969-10.136718-6.445312-19.152343-16-22.527343v-9.472657zm0 0" fill="#000000"/><path d="m300.191406 25.191406c-2.570312-1.582031-5.8125-1.582031-8.382812 0l-104 64c-2.367188 1.457032-3.808594 4.035156-3.808594 6.816406v160c0 4.417969 3.582031 8 8 8h208c4.417969 0 8-3.582031 8-8v-160c0-2.78125-1.441406-5.359374-3.808594-6.816406zm91.808594 222.816406h-192v-147.527343l96-59.082031 96 59.082031zm0 0" fill="#000000"/><path d="m296 17.382812 139.832031 85.457032 8.335938-13.664063-144-88c-2.558594-1.5625-5.777344-1.5625-8.335938 0l-144 88 8.335938 13.664063zm0 0" fill="#000000"/></svg>
