<?xml version="1.0" encoding="iso-8859-1"?>
<!-- Generator: Adobe Illustrator 19.0.0, SVG Export Plug-In . SVG Version: 6.00 Build 0)  -->
<svg xmlns="http://www.w3.org/2000/svg" xmlns:xlink="http://www.w3.org/1999/xlink" version="1.1" id="Capa_1" x="0px" y="0px" viewBox="0 0 480 480" style="enable-background:new 0 0 480 480;" xml:space="preserve" width="512px" height="512px">
<g>
	<g>
		<path d="M416.992,69.816l-62.64-62.768c-4.513-4.497-10.62-7.03-16.992-7.048H80C66.745,0,56,10.745,56,24v432    c0,13.255,10.745,24,24,24h320c13.255,0,24-10.745,24-24V86.768C424.014,80.41,421.492,74.308,416.992,69.816z M408,456    c0,4.418-3.582,8-8,8H80c-4.418,0-8-3.582-8-8V24c0-4.418,3.582-8,8-8h256v56c0,13.255,10.745,24,24,24h32V80h-32    c-4.418,0-8-3.582-8-8V27.344l53.664,53.768c1.497,1.501,2.338,3.536,2.336,5.656V456z" fill="#000000"/>
	</g>
</g>
<g>
	<g>
		<rect x="104" y="48" width="16" height="16" fill="#000000"/>
	</g>
</g>
<g>
	<g>
		<rect x="136" y="48" width="160" height="16" fill="#000000"/>
	</g>
</g>
<g>
	<g>
		<rect x="104" y="80" width="192" height="16" fill="#000000"/>
	</g>
</g>
<g>
	<g>
		<path d="M306.816,160.504l-64-24c-1.808-0.664-3.792-0.664-5.6,0l-64,24c-3.134,1.163-5.214,4.153-5.216,7.496v90.336    c-0.073,21.231,11.931,40.656,30.952,50.088l37.472,18.776c2.251,1.125,4.901,1.125,7.152,0l37.472-18.736    c19.034-9.438,31.04-28.883,30.952-50.128V168C312.003,164.665,309.937,161.678,306.816,160.504z M296,258.336    c0.052,15.166-8.524,29.041-22.112,35.776L240,311.056l-33.888-16.944c-13.588-6.735-22.164-20.61-22.112-35.776v-84.8l56-21    l56,21V258.336z" fill="#000000"/>
	</g>
</g>
<g>
	<g>
		<path d="M274.912,193.776L224,244.688l-16.968-16.976l-11.312,11.312l22.624,22.632c3.124,3.123,8.188,3.123,11.312,0    l56.568-56.568L274.912,193.776z" fill="#000000"/>
	</g>
</g>
<g>
</g>
<g>
</g>
<g>
</g>
<g>
</g>
<g>
</g>
<g>
</g>
<g>
</g>
<g>
</g>
<g>
</g>
<g>
</g>
<g>
</g>
<g>
</g>
<g>
</g>
<g>
</g>
<g>
</g>
</svg>
