<?xml version="1.0" encoding="iso-8859-1"?>
<!-- Generator: Adobe Illustrator 16.0.0, SVG Export Plug-In . SVG Version: 6.00 Build 0)  -->
<!DOCTYPE svg PUBLIC "-//W3C//DTD SVG 1.1//EN" "http://www.w3.org/Graphics/SVG/1.1/DTD/svg11.dtd">
<svg version="1.1" id="Capa_1" xmlns="http://www.w3.org/2000/svg" xmlns:xlink="http://www.w3.org/1999/xlink" x="0px" y="0px"
	 width="459px" height="459px" viewBox="0 0 459 459" style="enable-background:new 0 0 459 459;" xml:space="preserve">
<g>
	<g>
		<path d="M252.45,248.625L252.45,248.625l-5.737,19.125h1.912c32.513,0,57.375-24.862,57.375-57.375S281.138,153,248.625,153
			s-57.375,24.862-57.375,57.375v1.913l19.125-5.738c1.913-19.125,17.212-36.337,38.25-36.337c21.037,0,38.25,17.212,38.25,38.25
			C286.875,231.412,271.575,246.713,252.45,248.625z"/>
		<polygon points="229.5,267.75 248.625,210.375 191.25,229.5 204.638,242.888 103.275,344.25 38.25,344.25 38.25,363.375 
			84.15,363.375 65.025,382.5 0,382.5 0,401.625 45.9,401.625 19.125,428.4 32.513,441.787 57.375,416.925 57.375,459 76.5,459 
			76.5,401.625 76.5,397.8 95.625,378.675 95.625,420.75 114.75,420.75 114.75,361.463 114.75,359.55 218.025,256.275 		"/>
		<path d="M175.95,323.213c21.037,13.387,45.9,21.037,72.675,21.037c74.588,0,133.875-59.287,133.875-133.875
			c0-74.587-59.287-133.875-133.875-133.875c-74.587,0-133.875,59.288-133.875,133.875c0,26.775,7.65,51.638,21.038,72.675
			l13.387-13.388c-9.562-17.212-15.3-38.25-15.3-59.287c0-63.112,51.638-114.75,114.75-114.75s114.75,51.638,114.75,114.75
			s-51.638,114.75-114.75,114.75c-21.038,0-40.163-5.737-57.375-15.3L175.95,323.213z"/>
		<path d="M248.625,0C131.962,0,38.25,93.712,38.25,210.375c0,42.075,13.388,82.237,34.425,114.75h21.038l1.913-1.912
			c-22.95-32.513-38.25-70.763-38.25-112.838c0-105.188,86.062-191.25,191.25-191.25s191.25,86.062,191.25,191.25
			s-86.062,191.25-191.25,191.25c-42.075,0-82.237-13.388-112.837-36.338h-1.913v21.038c32.513,21.037,72.675,34.425,114.75,34.425
			C365.287,420.75,459,327.037,459,210.375C459,93.712,365.287,0,248.625,0z"/>
	</g>
</g>
<g>
</g>
<g>
</g>
<g>
</g>
<g>
</g>
<g>
</g>
<g>
</g>
<g>
</g>
<g>
</g>
<g>
</g>
<g>
</g>
<g>
</g>
<g>
</g>
<g>
</g>
<g>
</g>
<g>
</g>
</svg>
