<?xml version="1.0"?>
<svg xmlns="http://www.w3.org/2000/svg" height="512px" version="1.1" viewBox="-24 0 143 143.74989" width="512px">
<g id="surface1">
<path d="M 0.375 60.398438 L 0.375 125.382812 C 0.382812 135.519531 8.605469 143.738281 18.75 143.75 L 76.273438 143.75 C 86.417969 143.738281 94.632812 135.519531 94.636719 125.382812 L 94.636719 60.398438 C 94.632812 50.253906 86.417969 42.039062 76.273438 42.023438 L 75.996094 42.023438 L 75.996094 13.234375 L 76.828125 13.234375 C 80.484375 13.234375 83.445312 10.269531 83.445312 6.617188 C 83.445312 2.960938 80.484375 0 76.828125 0 L 16.476562 0 C 12.824219 0 9.867188 2.960938 9.867188 6.617188 C 9.867188 10.269531 12.824219 13.234375 16.476562 13.234375 L 17.320312 13.234375 L 17.320312 42.089844 C 7.761719 42.832031 0.378906 50.808594 0.375 60.398438 Z M 16.476562 10.132812 C 14.542969 10.132812 12.96875 8.558594 12.96875 6.617188 C 12.96875 4.675781 14.542969 3.105469 16.476562 3.105469 L 76.84375 3.105469 C 78.785156 3.105469 80.359375 4.675781 80.359375 6.617188 C 80.359375 8.558594 78.785156 10.132812 76.84375 10.132812 Z M 41.613281 29.617188 L 36.335938 29.617188 C 34.402344 29.617188 32.824219 28.042969 32.824219 26.101562 C 32.824219 24.164062 34.402344 22.589844 36.335938 22.589844 L 56.972656 22.589844 C 58.910156 22.589844 60.488281 24.164062 60.488281 26.101562 C 60.488281 28.042969 58.910156 29.617188 56.972656 29.617188 L 51.714844 29.617188 C 50.859375 29.617188 50.164062 30.308594 50.164062 31.167969 L 50.164062 42.023438 L 43.132812 42.023438 L 43.132812 31.167969 C 43.132812 30.308594 42.441406 29.617188 41.582031 29.617188 Z M 53.296875 32.722656 L 56.988281 32.722656 C 60.636719 32.722656 63.605469 29.753906 63.605469 26.101562 C 63.605469 22.445312 60.636719 19.484375 56.988281 19.484375 L 36.335938 19.484375 C 32.683594 19.484375 29.71875 22.445312 29.71875 26.101562 C 29.71875 29.753906 32.683594 32.722656 36.335938 32.722656 L 40.035156 32.722656 L 40.035156 42.023438 L 20.390625 42.023438 L 20.390625 13.234375 L 72.902344 13.234375 L 72.902344 42.023438 L 53.265625 42.023438 Z M 18.777344 45.128906 L 76.273438 45.128906 C 84.699219 45.136719 91.53125 51.96875 91.535156 60.398438 L 91.535156 125.382812 C 91.53125 133.8125 84.699219 140.640625 76.273438 140.644531 L 18.75 140.644531 C 10.320312 140.640625 3.488281 133.8125 3.480469 125.382812 L 3.480469 60.398438 C 3.488281 51.96875 10.320312 45.136719 18.75 45.128906 Z M 18.777344 45.128906 " style=" fill-rule:nonzero;fill-opacity:1;" stroke="#FFFFFF" fill="#FFFFFF"/>
<path d="M 29.355469 125.550781 L 65.65625 125.550781 C 72.375 125.546875 77.808594 120.105469 77.824219 113.390625 L 77.824219 72.371094 C 77.808594 65.65625 72.375 60.214844 65.65625 60.207031 L 29.355469 60.207031 C 22.640625 60.214844 17.203125 65.65625 17.199219 72.371094 L 17.199219 113.390625 C 17.203125 120.105469 22.640625 125.546875 29.355469 125.550781 Z M 20.300781 72.371094 C 20.308594 67.371094 24.359375 63.316406 29.355469 63.3125 L 65.65625 63.3125 C 70.664062 63.316406 74.707031 67.371094 74.722656 72.371094 L 74.722656 113.390625 C 74.707031 118.390625 70.664062 122.441406 65.65625 122.445312 L 29.355469 122.445312 C 24.359375 122.441406 20.308594 118.390625 20.300781 113.390625 Z M 20.300781 72.371094 " style=" fill-rule:nonzero;fill-opacity:1;" stroke="#FFFFFF" fill="#FFFFFF"/>
<path d="M 47.507812 111.949219 C 52.242188 112.140625 56.714844 109.769531 59.207031 105.738281 C 61.328125 102.355469 61.550781 98.117188 59.796875 94.519531 L 48.9375 74.703125 C 48.523438 73.953125 47.578125 73.679688 46.824219 74.089844 C 46.574219 74.234375 46.359375 74.4375 46.222656 74.703125 L 35.359375 94.519531 C 33.609375 98.117188 33.832031 102.355469 35.953125 105.738281 C 38.417969 109.722656 42.828125 112.089844 47.507812 111.949219 Z M 37.9375 95.957031 L 47.507812 78.59375 L 57.082031 95.957031 C 58.292969 98.589844 58.082031 101.648438 56.539062 104.101562 C 54.640625 107.234375 51.164062 109.058594 47.507812 108.84375 C 43.851562 109.058594 40.382812 107.230469 38.480469 104.101562 C 36.933594 101.648438 36.730469 98.589844 37.9375 95.957031 Z M 37.9375 95.957031 " style=" fill-rule:nonzero;fill-opacity:1;" stroke="#FFFFFF" fill="#FFFFFF"/>
</g>
</svg>
