<?xml version="1.0"?>
<svg xmlns="http://www.w3.org/2000/svg" height="512px" viewBox="-51 0 512 512" width="512px"><path d="m225.421875 335.457031c72.777344 0 131.984375-59.207031 131.984375-131.984375s-59.207031-131.984375-131.984375-131.984375-131.984375 59.207031-131.984375 131.984375 59.210938 131.984375 131.984375 131.984375zm-86.507813-53.316406c9.511719-1.839844 19.410157-3.367187 29.585938-4.570313 5.054688 14.613282 11.59375 27.078126 19.234375 36.660157-18.90625-6.453125-35.648437-17.617188-48.820313-32.089844zm79.007813-22.796875c-13.09375.1875-26.050781.867188-38.683594 2.023438-4.128906-15.351563-6.558593-32.480469-7.089843-50.394532h45.773437zm0 15v44.839844c-10.507813-3.554688-20.710937-14.410156-28.8125-30.980469-1.882813-3.851563-3.621094-7.921875-5.210937-12.191406 11.132812-.9375 22.519531-1.496094 34.023437-1.667969zm15 44.839844v-44.839844c11.507813.171875 22.894531.730469 34.027344 1.667969-1.589844 4.265625-3.328125 8.339843-5.210938 12.1875-8.105469 16.574219-18.308593 27.429687-28.816406 30.984375zm0-59.839844v-48.371094h45.777344c-.53125 17.914063-2.960938 35.042969-7.089844 50.394532-12.632813-1.15625-25.589844-1.835938-38.6875-2.023438zm60.785156-48.371094h48.464844c-1.359375 21.382813-8.492187 41.226563-19.851563 57.980469-11.347656-2.4375-23.28125-4.433594-35.609374-5.964844 4.019531-15.710937 6.476562-33.285156 6.996093-52.015625zm0-15c-.433593-15.570312-2.203125-30.34375-5.097656-43.914062 13.3125-1.710938 26.148437-3.964844 38.292969-6.746094 8.6875 15.101562 14.101562 32.3125 15.269531 50.660156zm-15.007812 0h-45.773438v-40.03125c13.808594-.195312 27.433594-.9375 40.683594-2.203125 2.914063 13.167969 4.652344 27.433594 5.089844 42.234375zm-45.777344-55.03125v-53.179687c10.507813 3.550781 20.710937 14.410156 28.816406 30.980469 3.042969 6.222656 5.710938 13.027343 7.976563 20.292968-11.996094 1.082032-24.3125 1.722656-36.792969 1.90625zm-15-53.179687v53.179687c-12.480469-.183594-24.792969-.824218-36.789063-1.90625 2.265626-7.265625 4.929688-14.070312 7.976563-20.292968 8.105469-16.570313 18.304687-27.429688 28.8125-30.980469zm0 68.179687v40.03125h-45.773437c.4375-14.800781 2.171874-29.066406 5.089843-42.234375 13.25 1.265625 26.875 2.007813 40.683594 2.203125zm-60.78125 40.03125h-48.464844c1.167969-18.347656 6.582031-35.558594 15.269531-50.65625 12.144532 2.777344 24.980469 5.035156 38.292969 6.746094-2.894531 13.566406-4.664062 28.339844-5.097656 43.910156zm0 15c.519531 18.730469 2.972656 36.304688 6.996094 52.015625-12.328125 1.53125-24.261719 3.527344-35.609375 5.964844-11.359375-16.753906-18.492188-36.597656-19.851563-57.980469zm105.972656 103.253906c7.640625-9.578124 14.179688-22.042968 19.234375-36.660156 10.175782 1.207032 20.074219 2.734375 29.585938 4.574219-13.171875 14.472656-29.914063 25.636719-48.820313 32.085937zm54.8125-182.296874c-10.546875 2.230468-21.597656 4.0625-33.011719 5.480468-5.320312-18.101562-12.796874-33.402344-21.800781-44.695312 21.90625 7.476562 40.90625 21.277344 54.8125 39.214844zm-130.191406-39.214844c-9.003906 11.292968-16.480469 26.59375-21.800781 44.695312-11.414063-1.417968-22.464844-3.25-33.011719-5.480468 13.90625-17.9375 32.90625-31.738282 54.8125-39.214844zm0 0" fill="#FFFFFF"/><path d="m355.46875 387.671875h-254.53125c-4.140625 0-7.5 3.359375-7.5 7.5s3.359375 7.5 7.5 7.5h254.53125c4.140625 0 7.5-3.359375 7.5-7.5s-3.359375-7.5-7.5-7.5zm0 0" fill="#FFFFFF"/><path d="m355.46875 425.511719h-254.53125c-4.140625 0-7.5 3.359375-7.5 7.5 0 4.144531 3.359375 7.5 7.5 7.5h254.53125c4.140625 0 7.5-3.355469 7.5-7.5 0-4.140625-3.359375-7.5-7.5-7.5zm0 0" fill="#FFFFFF"/><path d="m388.839844 0h-368.335938c-11.308594 0-20.503906 9.195312-20.503906 20.503906v470.992188c0 11.308594 9.195312 20.503906 20.503906 20.503906h368.335938c11.304687 0 20.5-9.195312 20.5-20.503906v-470.992188c0-11.308594-9.195313-20.503906-20.5-20.503906zm5.5 491.496094c0 3.035156-2.46875 5.503906-5.5 5.503906h-328.921875v-63.386719c0-4.140625-3.359375-7.5-7.5-7.5s-7.5 3.359375-7.5 7.5v63.386719h-24.414063c-3.035156 0-5.503906-2.46875-5.503906-5.503906v-470.992188c0-3.035156 2.46875-5.503906 5.503906-5.503906h24.414063v63.386719c0 4.140625 3.359375 7.5 7.5 7.5 4.144531 0 7.5-3.359375 7.5-7.5v-63.386719h328.921875c3.03125 0 5.5 2.46875 5.5 5.503906zm0 0" fill="#FFFFFF"/><path d="m52.417969 105.777344c-4.140625 0-7.5 3.359375-7.5 7.5v285.441406c0 4.144531 3.359375 7.5 7.5 7.5s7.5-3.355469 7.5-7.5v-285.441406c0-4.140625-3.359375-7.5-7.5-7.5zm0 0" fill="#FFFFFF"/></svg>
