<svg id="all_in_one" data-name="all in one" xmlns="http://www.w3.org/2000/svg" viewBox="0 0 1152.55 281.74"><defs><style>.cls-1{fill:#fff;}.cls-2{fill:#fefefe;}</style></defs><title>White</title><g id="White"><path class="cls-1" d="M465,250.29l-7,49.65h-4.86l.83-5.87c-5.29,4.55-11,6.83-17.06,6.83a15.75,15.75,0,0,1-12.41-5.6q-4.9-5.61-4.91-14.26a30,30,0,0,1,9.71-22.33c6.5-6.26,15-9.39,25.55-9.39A47.52,47.52,0,0,1,465,250.29Zm-10.23,38.08,4.9-34.73a25.79,25.79,0,0,0-6.09-.63,28.31,28.31,0,0,0-20.32,8.15,27.36,27.36,0,0,0-8.5,20.53c0,4.62,1.19,8.3,3.53,11.05a11.77,11.77,0,0,0,9.37,4.11C443.24,296.85,449,294,454.77,288.37Z" transform="translate(-19.44 -19.16)"/><path class="cls-1" d="M510.94,250.29l-.75,5.34a36.17,36.17,0,0,0-9.39-1.46c-7.25,0-13.05,2.49-17.35,7.42a26.33,26.33,0,0,0-6.46,17.8c0,5.09,1.54,9.21,4.59,12.32s7.08,4.65,12.13,4.65c3.5,0,8.22-1.33,14.17-4l-.76,5.17a33.12,33.12,0,0,1-14.62,3.4c-6.16,0-11.13-2-15-6.08s-5.71-9.39-5.71-16a29.69,29.69,0,0,1,8-20.69c5.34-5.89,12.49-8.84,21.38-8.84A50.36,50.36,0,0,1,510.94,250.29Z" transform="translate(-19.44 -19.16)"/><path class="cls-1" d="M553.47,250.29l-.76,5.34a36,36,0,0,0-9.39-1.46c-7.25,0-13,2.49-17.33,7.42a26.25,26.25,0,0,0-6.48,17.8c0,5.09,1.55,9.21,4.59,12.32s7.09,4.65,12.13,4.65c3.5,0,8.22-1.33,14.17-4l-.76,5.17A33.14,33.14,0,0,1,535,300.9q-9.21,0-14.94-6.08t-5.71-16a29.77,29.77,0,0,1,8-20.69q8-8.84,21.41-8.84A50.26,50.26,0,0,1,553.47,250.29Z" transform="translate(-19.44 -19.16)"/><path class="cls-1" d="M595.77,290.21v5.2a25.49,25.49,0,0,1-15.59,5.49q-9.87,0-15.92-6.52t-6-17.33q0-11.7,6.68-19.71t16.3-8A16,16,0,0,1,594.06,255c3.18,3.77,4.8,8.87,4.8,15.36a35.73,35.73,0,0,1-.23,3.76h-35a31.1,31.1,0,0,0-.21,3.2A20.42,20.42,0,0,0,568,290.7a15,15,0,0,0,12.26,5.66C585.5,296.36,590.67,294.34,595.77,290.21Zm-31.34-20.44H594c.23-5-.85-8.85-3.23-11.68a12,12,0,0,0-9.66-4.23c-3.76,0-7.27,1.5-10.58,4.52A19.19,19.19,0,0,0,564.43,269.77Z" transform="translate(-19.44 -19.16)"/><path class="cls-1" d="M622.21,224.55l-10.58,75.39h-4.9l10.64-75.39Z" transform="translate(-19.44 -19.16)"/><path class="cls-1" d="M664.85,290.21v5.2a25.52,25.52,0,0,1-15.6,5.49c-6.57,0-11.9-2.17-15.92-6.52s-6-10.13-6-17.33q0-11.7,6.68-19.71t16.3-8c5.35,0,9.65,1.87,12.84,5.64s4.81,8.87,4.81,15.36c0,1.11-.08,2.36-.22,3.76h-35c-.13,1.3-.21,2.37-.21,3.2a20.52,20.52,0,0,0,4.61,13.42,15,15,0,0,0,12.28,5.66C654.57,296.36,659.74,294.34,664.85,290.21ZM633.5,269.77h29.55c.23-5-.84-8.85-3.21-11.68a12,12,0,0,0-9.68-4.23q-5.61,0-10.57,4.52A19.25,19.25,0,0,0,633.5,269.77Z" transform="translate(-19.44 -19.16)"/><path class="cls-1" d="M687.77,250.29l-1.9,13.63.22.18q5.79-8.36,9.44-11.57a11.78,11.78,0,0,1,8-3.21,12.6,12.6,0,0,1,4.9,1v4.91a11.76,11.76,0,0,0-5.12-1.34q-5.15,0-11.66,7.8T685,270.41l-4.14,29.53h-4.9l7-49.65Z" transform="translate(-19.44 -19.16)"/><path class="cls-1" d="M749.32,250.29l-7,49.65h-4.86l.83-5.87q-7.93,6.82-17,6.83a15.79,15.79,0,0,1-12.43-5.6q-4.91-5.61-4.9-14.26a30,30,0,0,1,9.72-22.33q9.72-9.39,25.54-9.39A47.29,47.29,0,0,1,749.32,250.29ZM739.1,288.37,744,253.64a26,26,0,0,0-6.11-.63,28.24,28.24,0,0,0-20.29,8.15,27.3,27.3,0,0,0-8.52,20.53q0,6.93,3.54,11.05a11.74,11.74,0,0,0,9.35,4.11C727.58,296.85,733.28,294,739.1,288.37Z" transform="translate(-19.44 -19.16)"/><path class="cls-1" d="M785.13,250.29l-.54,3.68H771.42l-4.52,23.85a101.88,101.88,0,0,0-1.37,10.62,8.8,8.8,0,0,0,2.28,6.48,7.48,7.48,0,0,0,5.61,2.31c3,0,6.14-1.42,9.5-4.31v4.53a18.57,18.57,0,0,1-10.31,3.45,11.55,11.55,0,0,1-8.83-3.67,12.76,12.76,0,0,1-3.42-9.13,56.05,56.05,0,0,1,1.47-11.05L766.56,254h-9.87l.59-3.68h9.8L769.32,239h4.84l-2.33,11.34Z" transform="translate(-19.44 -19.16)"/><path class="cls-1" d="M826.09,290.21v5.2a25.5,25.5,0,0,1-15.6,5.49c-6.58,0-11.9-2.17-15.91-6.52s-6-10.13-6-17.33q0-11.7,6.69-19.71t16.29-8A16,16,0,0,1,824.36,255c3.21,3.77,4.8,8.87,4.8,15.36,0,1.11-.06,2.36-.2,3.76h-35a29.25,29.25,0,0,0-.23,3.2,20.58,20.58,0,0,0,4.62,13.42,15,15,0,0,0,12.28,5.66C815.8,296.36,821,294.34,826.09,290.21Zm-31.36-20.44H824.3c.22-5-.86-8.85-3.23-11.68a12,12,0,0,0-9.66-4.23q-5.61,0-10.58,4.52A19.26,19.26,0,0,0,794.73,269.77Z" transform="translate(-19.44 -19.16)"/><path class="cls-1" d="M901.15,254v5.39c-5.87-3.68-11.25-5.5-16.13-5.5a12.3,12.3,0,0,0-7.22,2.08c-2,1.39-3,3.05-3,5a6.84,6.84,0,0,0,1.69,4.18c1.14,1.42,4.3,3.74,9.54,7s8.66,6,10.31,8.45a12.92,12.92,0,0,1,2.49,7.36,11.44,11.44,0,0,1-4.74,9.19,17.65,17.65,0,0,1-11.52,3.8q-9,0-16.68-6.52l1.52-5.19c4.51,4.8,9.62,7.17,15.38,7.17a12.58,12.58,0,0,0,7.77-2.25,6.82,6.82,0,0,0,3.08-5.67,8.23,8.23,0,0,0-1.82-4.82c-1.23-1.63-4.4-4.14-9.55-7.46s-8.42-6-9.88-8.16a11.06,11.06,0,0,1-2.22-6.32,10.76,10.76,0,0,1,4.53-8.79A17.69,17.69,0,0,1,886,249.32,28.08,28.08,0,0,1,901.15,254Z" transform="translate(-19.44 -19.16)"/><path class="cls-1" d="M950.68,250.29l-7,49.65h-4.84l1.39-8.81L940,291q-9.3,9.93-19.26,9.93a12.14,12.14,0,0,1-8.64-3.34,11.7,11.7,0,0,1-3.56-9,23.92,23.92,0,0,1,.16-2.63l5-35.62h4.86l-5,35.41a19.06,19.06,0,0,0-.11,1.93,8.54,8.54,0,0,0,2.38,6.39,8.79,8.79,0,0,0,6.47,2.34c5.65,0,11.89-3.89,18.71-11.73l4.81-34.34Z" transform="translate(-19.44 -19.16)"/><path class="cls-1" d="M996.28,250.29l-.75,5.34a36,36,0,0,0-9.39-1.46c-7.25,0-13,2.49-17.34,7.42a26.18,26.18,0,0,0-6.45,17.8c0,5.09,1.52,9.21,4.57,12.32s7.08,4.65,12.14,4.65c3.49,0,8.21-1.33,14.16-4l-.75,5.17a33.14,33.14,0,0,1-14.64,3.4c-6.15,0-11.12-2-15-6.08s-5.71-9.39-5.71-16a29.81,29.81,0,0,1,8-20.69q8-8.84,21.41-8.84A50.08,50.08,0,0,1,996.28,250.29Z" transform="translate(-19.44 -19.16)"/><path class="cls-1" d="M1038.81,250.29l-.76,5.34a36,36,0,0,0-9.39-1.46c-7.25,0-13,2.49-17.34,7.42a26.22,26.22,0,0,0-6.45,17.8c0,5.09,1.51,9.21,4.57,12.32s7.08,4.65,12.14,4.65c3.49,0,8.21-1.33,14.15-4l-.74,5.17a33.11,33.11,0,0,1-14.64,3.4c-6.14,0-11.11-2-15-6.08s-5.71-9.39-5.71-16a29.81,29.81,0,0,1,8-20.69q8-8.84,21.41-8.84A50.34,50.34,0,0,1,1038.81,250.29Z" transform="translate(-19.44 -19.16)"/><path class="cls-1" d="M1081.12,290.21v5.2a25.52,25.52,0,0,1-15.6,5.49c-6.57,0-11.89-2.17-15.92-6.52s-6-10.13-6-17.33q0-11.7,6.67-19.71t16.3-8a16,16,0,0,1,12.84,5.64c3.21,3.77,4.81,8.87,4.81,15.36,0,1.11-.08,2.36-.21,3.76h-35c-.13,1.3-.21,2.37-.21,3.2a20.53,20.53,0,0,0,4.62,13.42,15,15,0,0,0,12.27,5.66C1070.84,296.36,1076,294.34,1081.12,290.21Zm-31.36-20.44h29.56c.23-5-.85-8.85-3.22-11.68a12,12,0,0,0-9.66-4.23q-5.62,0-10.58,4.52A19.21,19.21,0,0,0,1049.76,269.77Z" transform="translate(-19.44 -19.16)"/><path class="cls-1" d="M1125.48,254v5.39c-5.88-3.68-11.26-5.5-16.14-5.5a12.3,12.3,0,0,0-7.2,2.08c-2,1.39-3,3.05-3,5a6.86,6.86,0,0,0,1.7,4.18c1.13,1.42,4.31,3.74,9.51,7s8.67,6,10.31,8.45a12.9,12.9,0,0,1,2.48,7.36,11.42,11.42,0,0,1-4.7,9.19,17.69,17.69,0,0,1-11.52,3.8,25.19,25.19,0,0,1-16.68-6.52l1.51-5.19c4.5,4.8,9.63,7.17,15.38,7.17a12.6,12.6,0,0,0,7.77-2.25,6.8,6.8,0,0,0,3.08-5.67,8.2,8.2,0,0,0-1.84-4.82c-1.2-1.63-4.4-4.14-9.51-7.46s-8.44-6-9.92-8.16a11,11,0,0,1-2.2-6.32,10.72,10.72,0,0,1,4.52-8.79,17.77,17.77,0,0,1,11.29-3.57A28.12,28.12,0,0,1,1125.48,254Z" transform="translate(-19.44 -19.16)"/><path class="cls-1" d="M1164.61,254v5.39c-5.87-3.68-11.25-5.5-16.15-5.5a12.2,12.2,0,0,0-7.19,2.08c-2,1.39-3,3.05-3,5a6.83,6.83,0,0,0,1.68,4.18c1.14,1.42,4.31,3.74,9.53,7s8.65,6,10.31,8.45a12.92,12.92,0,0,1,2.49,7.36,11.49,11.49,0,0,1-4.71,9.19,17.76,17.76,0,0,1-11.54,3.8c-6,0-11.55-2.17-16.68-6.52l1.52-5.19c4.51,4.8,9.62,7.17,15.37,7.17a12.68,12.68,0,0,0,7.79-2.25,6.84,6.84,0,0,0,3.07-5.67,8.32,8.32,0,0,0-1.83-4.82c-1.22-1.63-4.4-4.14-9.53-7.46s-8.42-6-9.9-8.16a11.06,11.06,0,0,1-2.22-6.32,10.77,10.77,0,0,1,4.54-8.79,17.74,17.74,0,0,1,11.28-3.57A28.11,28.11,0,0,1,1164.61,254Z" transform="translate(-19.44 -19.16)"/><path class="cls-2" d="M411.61,57.94l-22,156.21H343.14L346,196.68q-24.33,20.16-50.54,20.15-21.85,0-33.75-12.76t-11.95-34.76a97,97,0,0,1,.85-12.27l14.1-99.1H311l-11.66,82.95a131.91,131.91,0,0,0-1.5,18.32q0,23.35,14,23.36,18,0,39.2-22.84L365.15,57.94Z" transform="translate(-19.44 -19.16)"/><polygon class="cls-2" points="456.95 103.22 443.73 194.99 397.27 194.99 410.13 103.53 456.95 103.22"/><path class="cls-2" d="M558.22,57.94,555.7,75.75q26-20.32,53.12-20.32,20.45,0,31.35,12.63t10.89,35.42a105.87,105.87,0,0,1-1,14.07l-13.4,96.6H590.18l13.09-93.09A48.81,48.81,0,0,0,604,113q0-23.15-14.46-23.15-16.65,0-39.15,24L536.21,214.15H489.73L511.89,57.94Z" transform="translate(-19.44 -19.16)"/><path class="cls-2" d="M729.61,57.94l-2.5,17.81q26-20.32,53.12-20.32,20.44,0,31.34,12.63t10.89,35.42a104.21,104.21,0,0,1-1,14.07l-13.39,96.6H761.57l13.1-93.09a48.81,48.81,0,0,0,.68-8.06q0-23.15-14.46-23.15-16.65,0-39.16,24L707.62,214.15H661.13L683.3,57.94Z" transform="translate(-19.44 -19.16)"/><path class="cls-2" d="M928.25,55.43q34.1,0,55.77,20.38t21.68,53.09q0,37.26-25.62,62.78T917,217.16q-33.24,0-56-21.79T838.24,142q0-35.4,26.53-61T928.25,55.43Zm-10.91,124q17.65,0,28.89-16.17a61.1,61.1,0,0,0,11.26-35.64q0-15.4-8.57-24.88T926.24,93.2q-18.63,0-29.32,16.69t-10.67,34.79q0,15.76,9.41,25.24T917.34,179.38Z" transform="translate(-19.44 -19.16)"/><polygon class="cls-2" points="1063.23 149.95 1101.04 195.98 1152.12 195.98 1088.18 119.62 1063.23 149.95"/><polygon class="cls-2" points="1152.55 37.86 1101.41 37.86 1062.82 79.56 1088.41 108.81 1152.55 37.86"/><polygon class="cls-1" points="965.89 37.44 1016.99 37.44 1083.69 113.6 1016.25 195.56 965.89 195.56 1033.04 113.62 965.89 37.44"/><path class="cls-2" d="M226,155.31a124.32,124.32,0,0,0,8-45q0-27.63-12.59-48.37a83.09,83.09,0,0,0-34.83-31.73q-22.23-11-49.85-11a134.06,134.06,0,0,0-44.34,7.27A112.19,112.19,0,0,0,55,48.23a102,102,0,0,0-26,36.13q-9.49,21.58-9.49,48.93,0,31.52,14.94,52a84.85,84.85,0,0,0,37.93,29.57A126.35,126.35,0,0,0,119,224s49.68,7.12,89.05-15c0,0-4.74,1.18-23.38-3a102.92,102.92,0,0,0,18.08-14.51A104.72,104.72,0,0,0,226,155.31ZM85.28,165.1Q72.68,151,72.68,130.84a73.63,73.63,0,0,1,7.18-31.16,65,65,0,0,1,21.25-25.61q14-10.15,33.16-10.15a46.28,46.28,0,0,1,24.11,6.2,43.19,43.19,0,0,1,16.34,17.41c3.93,7.49,5.89,16.2,5.89,26.19a74.12,74.12,0,0,1-4,24.26,64.16,64.16,0,0,1-12.15,21.14,57,57,0,0,1-44.54,20.08Q97.84,179.2,85.28,165.1Z" transform="translate(-19.44 -19.16)"/><path class="cls-1" d="M154.66,207.25c-37.64,1-73.07-10.82-91-35.88,11.53,31.74,47.39,54.3,89.19,53.15s82.49-21.43,92.28-53.75C221.46,194.54,192.29,206.2,154.66,207.25Z" transform="translate(-19.44 -19.16)"/><path class="cls-1" d="M480.1,55.49a5.64,5.64,0,0,0-6.58,4.5l-5.86,39.7a5.88,5.88,0,0,0,11.6,1.73l5.85-39.71A5.64,5.64,0,0,0,480.1,55.49Z" transform="translate(-19.44 -19.16)"/><path class="cls-1" d="M460.49,68.58a5.62,5.62,0,0,0-6.58,4.5L448,112.78a5.89,5.89,0,0,0,11.61,1.72l5.86-39.71A5.65,5.65,0,0,0,460.49,68.58Z" transform="translate(-19.44 -19.16)"/><path class="cls-1" d="M445,55.49a5.65,5.65,0,0,0-6.57,4.5l-5.87,39.7a5.89,5.89,0,0,0,11.61,1.73L450,61.71A5.65,5.65,0,0,0,445,55.49Z" transform="translate(-19.44 -19.16)"/></g></svg>